<svg width="45" height="46" viewBox="0 0 45 46" fill="none" xmlns="http://www.w3.org/2000/svg">
<g id="SVG">
<path id="Vector" d="M19.6875 7.95117C16.0718 7.95117 12.5373 9.02335 9.53099 11.0321C6.52465 13.0409 4.1815 15.896 2.79784 19.2365C1.41417 22.5769 1.05214 26.2527 1.75753 29.7989C2.46291 33.3451 4.20403 36.6025 6.76071 39.1592C9.31739 41.7159 12.5748 43.457 16.121 44.1624C19.6672 44.8678 23.343 44.5057 26.6834 43.1221C30.0239 41.7384 32.879 39.3953 34.8878 36.3889C36.8966 33.3826 37.9688 29.8481 37.9688 26.2324H19.6875V7.95117Z" fill="#113864"/>
<path id="Vector_2" d="M25.3125 2.32617V20.6074H43.5938C43.5938 18.2067 43.1209 15.8295 42.2022 13.6115C41.2835 11.3935 39.9369 9.3782 38.2393 7.68062C36.5417 5.98305 34.5264 4.63647 32.3084 3.71775C30.0904 2.79903 27.7132 2.32617 25.3125 2.32617Z" fill="#113864"/>
</g>
</svg>
