<svg width="45" height="46" viewBox="0 0 45 46" fill="none" xmlns="http://www.w3.org/2000/svg">
<g id="SVG" clip-path="url(#clip0_45_570)">
<g id="Clip path group">
<mask id="mask0_45_570" style="mask-type:luminance" maskUnits="userSpaceOnUse" x="0" y="0" width="45" height="46">
<g id="clip0_1_171">
<path id="Vector" d="M45 0.919922H0V45.9199H45V0.919922Z" fill="white"/>
</g>
</mask>
<g mask="url(#mask0_45_570)">
<g id="Group">
<path id="Vector_2" d="M29.0391 27.2861C31.0865 26.1368 32.7949 24.4682 33.9921 22.4483C35.1892 20.4285 35.8329 18.1288 35.8583 15.781C35.8836 13.4331 35.2898 11.1201 34.1365 9.07488C32.9832 7.02966 31.3113 5.32451 29.2891 4.13123C27.267 2.93795 24.9661 2.2987 22.6182 2.27787C20.2703 2.25704 17.9584 2.85537 15.9154 4.01259C13.8724 5.1698 12.1705 6.84502 10.9811 8.86946C9.79175 10.8939 9.15694 13.196 9.14062 15.5439C11.2186 14.9854 13.3872 14.8472 15.5192 15.1374C17.6513 15.4275 19.7041 16.1403 21.5572 17.2338C23.4103 18.3274 25.0266 19.7797 26.3114 21.5058C27.5961 23.232 28.5234 25.1971 29.0391 27.2861Z" fill="#113864"/>
<path id="Vector_3" d="M20.2509 19.6933C18.2247 18.4657 15.9086 17.799 13.5399 17.7614C11.1712 17.7239 8.83512 18.3169 6.77109 19.4796C4.70707 20.6424 2.98936 22.3331 1.79403 24.3784C0.5987 26.4237 -0.03125 28.7501 -0.03125 31.1191C-0.03125 33.4881 0.5987 35.8145 1.79403 37.8599C2.98936 39.9052 4.70707 41.5959 6.77109 42.7586C8.83512 43.9214 11.1712 44.5144 13.5399 44.4768C15.9086 44.4393 18.2247 43.7725 20.2509 42.5449C17.2238 39.5129 15.5237 35.4035 15.5237 31.1191C15.5237 26.8347 17.2238 22.7254 20.2509 19.6933Z" fill="#113864"/>
<path id="Vector_4" d="M38.1797 19.5527C37.6641 21.6418 36.7367 23.6069 35.452 25.333C34.1673 27.0591 32.551 28.5115 30.6978 29.605C28.8447 30.6986 26.7921 31.4113 24.66 31.7015C22.5279 31.9917 20.3593 31.8534 18.2812 31.2949C18.2977 33.6428 18.9324 35.945 20.1217 37.9694C21.3111 39.9938 23.013 41.6691 25.056 42.8263C27.099 43.9835 29.4109 44.5818 31.7589 44.561C34.1068 44.5402 36.4076 43.9009 38.4298 42.7076C40.4519 41.5144 42.1238 39.8092 43.2771 37.764C44.4304 35.7188 45.0244 33.4057 44.999 31.0579C44.9736 28.71 44.33 26.4104 43.1328 24.3905C41.9356 22.3707 40.2271 20.702 38.1797 19.5527Z" fill="#113864"/>
</g>
</g>
</g>
</g>
<defs>
<clipPath id="clip0_45_570">
<rect width="45" height="45" fill="white" transform="translate(0 0.919922)"/>
</clipPath>
</defs>
</svg>
